<svg width="28" height="28" viewBox="0 0 28 28" fill="none" xmlns="http://www.w3.org/2000/svg">
<path d="M2.3325 12.6659H0.731765C1.35719 6.36671 6.36671 1.35719 12.6659 0.731765V2.33261C12.6659 2.88489 13.1136 3.33261 13.6659 3.33261C14.2182 3.33261 14.6659 2.88489 14.6659 2.33261V0.682312C21.2755 1.00778 26.6195 6.14603 27.2668 12.6659H25.6659C25.1136 12.6659 24.6659 13.1136 24.6659 13.6659C24.6659 14.2182 25.1136 14.6659 25.6659 14.6659H27.3163C26.9798 21.4992 21.4992 26.9798 14.6659 27.3163V25.6659C14.6659 25.1136 14.2182 24.6659 13.6659 24.6659C13.1136 24.6659 12.6659 25.1136 12.6659 25.6659V27.2668C6.14603 26.6195 1.00778 21.2755 0.682312 14.6659H2.3325C2.88478 14.6659 3.3325 14.2182 3.3325 13.6659C3.3325 13.1136 2.88478 12.6659 2.3325 12.6659ZM17.5376 13.367C16.9795 12.0646 15.9262 11.0379 14.6099 10.5134L9.23898 8.37318C8.69526 8.15651 8.15622 8.69557 8.3729 9.23929L10.5132 14.6102C11.0377 15.9263 12.0644 16.9796 13.3667 17.5378L19.1339 20.0095C19.6871 20.2466 20.2464 19.6872 20.0094 19.1342L17.5376 13.367Z" fill="#F0F2F5"/>
</svg>
