<svg width="22" height="18" viewBox="0 0 22 18" fill="none" xmlns="http://www.w3.org/2000/svg">
<path d="M12.1083 0.843636C11.6543 -0.0761383 10.3428 -0.0761292 9.88884 0.843636L7.72741 5.22321L2.89426 5.92551C1.87923 6.073 1.47394 7.32039 2.20842 8.03631L5.70572 11.4453L4.88011 16.259C4.70673 17.2699 5.76781 18.0408 6.67566 17.5635L10.9986 15.2908L15.3215 17.5635C16.2293 18.0408 17.2904 17.2699 17.117 16.259L16.2914 11.4453L19.7887 8.03631C20.5232 7.32039 20.1179 6.073 19.1029 5.92551L14.2698 5.22321L12.1083 0.843636ZM8.92843 5.89656L10.9986 1.70199L13.0688 5.89656C13.249 6.26181 13.5974 6.51495 14.0005 6.57353L18.6294 7.24614L15.2798 10.5112C14.9883 10.7955 14.8552 11.205 14.924 11.6065L15.7147 16.2168L11.5744 14.0401C11.2139 13.8505 10.7832 13.8505 10.4227 14.0401L6.28242 16.2168L7.07315 11.6065C7.142 11.205 7.00891 10.7955 6.71724 10.5112L3.36769 7.24614L7.99666 6.57353C8.39973 6.51495 8.74817 6.26181 8.92843 5.89656ZM1.06737 1.46593C0.83017 1.76242 0.878241 2.19506 1.17474 2.43226L3.4664 4.26559C3.76289 4.50279 4.19553 4.45472 4.43273 4.15822C4.66992 3.86172 4.62185 3.42909 4.32536 3.1919L2.03369 1.35856C1.73719 1.12137 1.30456 1.16944 1.06737 1.46593ZM20.9327 14.6999C21.17 14.4034 21.1219 13.9707 20.8254 13.7336L18.5337 11.9002C18.2372 11.663 17.8046 11.7111 17.5674 12.0076C17.3302 12.3041 17.3783 12.7367 17.6747 12.9739L19.9664 14.8073C20.2629 15.0444 20.6955 14.9964 20.9327 14.6999ZM1.17474 13.7336C0.878241 13.9707 0.83017 14.4034 1.06737 14.6999C1.30456 14.9964 1.73719 15.0444 2.03369 14.8073L4.32536 12.9739C4.62185 12.7367 4.66992 12.3041 4.43273 12.0076C4.19553 11.7111 3.76289 11.663 3.4664 11.9002L1.17474 13.7336ZM20.9327 1.46593C21.17 1.76242 21.1219 2.19506 20.8254 2.43226L18.5337 4.26559C18.2372 4.50279 17.8046 4.45472 17.5674 4.15822C17.3302 3.86172 17.3783 3.42909 17.6747 3.1919L19.9664 1.35856C20.2629 1.12137 20.6955 1.16944 20.9327 1.46593Z" fill="#6E34FF"/>
</svg>
