<svg width="16" height="20" viewBox="0 0 16 20" fill="none" xmlns="http://www.w3.org/2000/svg">
<path d="M9.60419 0.833344C10.6958 0.833344 11.5893 1.68141 11.6619 2.75463L11.6667 2.89584C11.6667 2.81821 11.6624 2.74157 11.654 2.66616L13.2709 2.66668C14.4099 2.66668 15.3334 3.59009 15.3334 4.72918V17.1042C15.3334 18.2432 14.4099 19.1667 13.2709 19.1667H2.72919C1.5901 19.1667 0.666687 18.2432 0.666687 17.1042V4.72918C0.666687 3.59009 1.5901 2.66668 2.72919 2.66668L4.34599 2.66616C4.34007 2.71961 4.3362 2.77366 4.33444 2.82825L4.33335 2.89584C4.33335 1.75676 5.25677 0.833344 6.39585 0.833344H9.60419ZM9.60419 4.95834H6.39585C5.66797 4.95834 5.02816 4.58129 4.66107 4.01185L4.68079 4.04186L2.72919 4.04168C2.34949 4.04168 2.04169 4.34948 2.04169 4.72918V17.1042C2.04169 17.4839 2.34949 17.7917 2.72919 17.7917H13.2709C13.6505 17.7917 13.9584 17.4839 13.9584 17.1042V4.72918C13.9584 4.34948 13.6505 4.04168 13.2709 4.04168L11.3193 4.04186L11.339 4.01185C10.9719 4.58129 10.3321 4.95834 9.60419 4.95834ZM9.60419 2.20834H6.39585C6.01616 2.20834 5.70835 2.51615 5.70835 2.89584C5.70835 3.27554 6.01616 3.58334 6.39585 3.58334H9.60419C9.98387 3.58334 10.2917 3.27554 10.2917 2.89584C10.2917 2.51615 9.98387 2.20834 9.60419 2.20834ZM4.33335 12.2917H8.00002C8.3797 12.2917 8.68752 11.9839 8.68752 11.6042C8.68752 11.2245 8.3797 10.9167 8.00002 10.9167H4.33335C3.95366 10.9167 3.64585 11.2245 3.64585 11.6042C3.64585 11.9839 3.95366 12.2917 4.33335 12.2917ZM4.33335 8.62501H11.6667C12.0464 8.62501 12.3542 8.31719 12.3542 7.93751C12.3542 7.55782 12.0464 7.25001 11.6667 7.25001H4.33335C3.95366 7.25001 3.64585 7.55782 3.64585 7.93751C3.64585 8.31719 3.95366 8.62501 4.33335 8.62501ZM4.33335 15.9583H9.83335C10.213 15.9583 10.5209 15.6505 10.5209 15.2708C10.5209 14.8912 10.213 14.5833 9.83335 14.5833H4.33335C3.95366 14.5833 3.64585 14.8912 3.64585 15.2708C3.64585 15.6505 3.95366 15.9583 4.33335 15.9583Z" fill="#B5BBC0"/>
</svg>
