<svg width="18" height="18" viewBox="0 0 18 18" fill="none" xmlns="http://www.w3.org/2000/svg">
<path d="M14.7292 0.75C16.1214 0.75 17.25 1.87862 17.25 3.27083V14.7292C17.25 16.1214 16.1214 17.25 14.7292 17.25H3.27083C1.87862 17.25 0.75 16.1214 0.75 14.7292V3.27083C0.75 1.87862 1.87862 0.75 3.27083 0.75H14.7292ZM14.7292 2.125H3.27083C2.638 2.125 2.125 2.638 2.125 3.27083V14.7292C2.125 15.362 2.638 15.875 3.27083 15.875H14.7292C15.362 15.875 15.875 15.362 15.875 14.7292V3.27083C15.875 2.638 15.362 2.125 14.7292 2.125ZM6.93924 9.45833C7.8252 9.45833 8.54341 10.1765 8.54341 11.0625V12.8958C8.54341 13.7818 7.8252 14.5 6.93924 14.5H5.10591C4.21995 14.5 3.50174 13.7818 3.50174 12.8958V11.0625C3.50174 10.1765 4.21995 9.45833 5.10591 9.45833H6.93924ZM12.8953 9.45833C13.7812 9.45833 14.4994 10.1765 14.4994 11.0625V12.8958C14.4994 13.7818 13.7812 14.5 12.8953 14.5H11.062C10.176 14.5 9.45778 13.7818 9.45778 12.8958V11.0625C9.45778 10.1765 10.176 9.45833 11.062 9.45833H12.8953ZM6.93924 10.8333H5.10591C4.97934 10.8333 4.87674 10.9359 4.87674 11.0625V12.8958C4.87674 13.0224 4.97934 13.125 5.10591 13.125H6.93924C7.06581 13.125 7.16841 13.0224 7.16841 12.8958V11.0625C7.16841 10.9359 7.06581 10.8333 6.93924 10.8333ZM12.8953 10.8333H11.062C10.9354 10.8333 10.8328 10.9359 10.8328 11.0625V12.8958C10.8328 13.0224 10.9354 13.125 11.062 13.125H12.8953C13.0218 13.125 13.1244 13.0224 13.1244 12.8958V11.0625C13.1244 10.9359 13.0218 10.8333 12.8953 10.8333ZM6.93808 3.5C7.82401 3.5 8.54222 4.21821 8.54222 5.10417V6.9375C8.54222 7.82346 7.82401 8.54167 6.93808 8.54167H5.10474C4.21879 8.54167 3.50058 7.82346 3.50058 6.9375V5.10417C3.50058 4.21821 4.21879 3.5 5.10474 3.5H6.93808ZM12.8941 3.5C13.7801 3.5 14.4983 4.21821 14.4983 5.10417V6.9375C14.4983 7.82346 13.7801 8.54167 12.8941 8.54167H11.0608C10.1748 8.54167 9.45659 7.82346 9.45659 6.9375V5.10417C9.45659 4.21821 10.1748 3.5 11.0608 3.5H12.8941ZM6.93808 4.875H5.10474C4.97818 4.875 4.87558 4.9776 4.87558 5.10417V6.9375C4.87558 7.06406 4.97818 7.16667 5.10474 7.16667H6.93808C7.06464 7.16667 7.16722 7.06406 7.16722 6.9375V5.10417C7.16722 4.9776 7.06464 4.875 6.93808 4.875ZM12.8941 4.875H11.0608C10.9342 4.875 10.8316 4.9776 10.8316 5.10417V6.9375C10.8316 7.06406 10.9342 7.16667 11.0608 7.16667H12.8941C13.0207 7.16667 13.1233 7.06406 13.1233 6.9375V5.10417C13.1233 4.9776 13.0207 4.875 12.8941 4.875Z" fill="#B5BBC0"/>
</svg>
