<svg width="20" height="20" viewBox="0 0 20 20" fill="none" xmlns="http://www.w3.org/2000/svg">
<path d="M9.99837 11.8335C11.0108 11.8335 11.8317 11.0126 11.8317 10.0002C11.8317 8.98763 11.0108 8.16685 9.99837 8.16685C8.98582 8.16685 8.16501 8.98763 8.16501 10.0002C8.16501 11.0126 8.98582 11.8335 9.99837 11.8335ZM4.49835 10.0002C4.49835 6.96257 6.96078 4.50013 9.99837 4.50013C13.0359 4.50013 15.4984 6.96257 15.4984 10.0002C15.4984 13.0377 13.0359 15.5002 9.99837 15.5002C6.96078 15.5002 4.49835 13.0377 4.49835 10.0002ZM9.99837 5.87514C7.72017 5.87514 5.87335 7.72196 5.87335 10.0002C5.87335 12.2783 7.72017 14.1252 9.99837 14.1252C12.2765 14.1252 14.1234 12.2783 14.1234 10.0002C14.1234 7.72196 12.2765 5.87514 9.99837 5.87514ZM0.829773 10.0001C0.829773 4.93646 4.9347 0.831543 9.99837 0.831543C15.062 0.831543 19.167 4.93646 19.167 10.0001C19.167 15.0638 15.062 19.1687 9.99837 19.1687C4.9347 19.1687 0.829773 15.0638 0.829773 10.0001ZM9.99837 2.20654C5.69408 2.20654 2.20477 5.69585 2.20477 10.0001C2.20477 14.3044 5.69408 17.7937 9.99837 17.7937C14.3027 17.7937 17.792 14.3044 17.792 10.0001C17.792 5.69585 14.3027 2.20654 9.99837 2.20654Z" fill="#B5BBC0"/>
</svg>
