<svg width="20" height="20" viewBox="0 0 20 20" fill="none" xmlns="http://www.w3.org/2000/svg">
<path d="M12.9791 0.833328C13.3272 0.833328 13.6149 1.09197 13.6604 1.42754L13.6666 1.52083L13.6671 3.65219C15.0139 3.92577 16.0746 4.98667 16.3479 6.33349L18.4791 6.33333C18.8588 6.33333 19.1666 6.64114 19.1666 7.02083C19.1666 7.36889 18.908 7.65653 18.5725 7.70205L18.4791 7.70833H16.4166V9.3125H18.4791C18.8272 9.3125 19.1149 9.57118 19.1604 9.90668L19.1666 10C19.1666 10.3481 18.908 10.6357 18.5725 10.6813L18.4791 10.6875H16.4166V12.2917H18.4791C18.8272 12.2917 19.1149 12.5503 19.1604 12.8858L19.1666 12.9792C19.1666 13.3272 18.908 13.6149 18.5725 13.6604L18.4791 13.6667L16.3477 13.6674C16.0741 15.0138 15.0136 16.0743 13.6671 16.3478L13.6666 18.4792C13.6666 18.8588 13.3588 19.1667 12.9791 19.1667C12.6311 19.1667 12.3434 18.908 12.2979 18.5725L12.2916 18.4792V16.4157H10.6866L10.6875 18.4792C10.6875 18.8272 10.4288 19.1149 10.0933 19.1604L9.99998 19.1667C9.65192 19.1667 9.36427 18.908 9.31871 18.5725L9.31248 18.4792L9.31156 16.4157H7.70831V18.4792C7.70831 18.8272 7.44968 19.1149 7.1141 19.1604L7.02081 19.1667C6.67275 19.1667 6.38511 18.908 6.33959 18.5725L6.33331 18.4792L6.33373 16.348C4.98662 16.0747 3.9255 15.0137 3.65207 13.6667H1.52081C1.14112 13.6667 0.833313 13.3588 0.833313 12.9792C0.833313 12.6311 1.09195 12.3435 1.42752 12.2979L1.52081 12.2917L3.58331 12.2907V10.6866L1.52081 10.6875C1.17275 10.6875 0.885114 10.4288 0.839592 10.0933L0.833313 10C0.833313 9.65194 1.09195 9.36429 1.42752 9.31873L1.52081 9.3125L3.58331 9.31158V7.70741L1.52081 7.70833C1.17275 7.70833 0.885114 7.44969 0.839592 7.11412L0.833313 7.02083C0.833313 6.67277 1.09195 6.38513 1.42752 6.33961L1.52081 6.33333L3.65226 6.33245C3.92597 4.98583 4.98692 3.92522 6.33373 3.65201L6.33331 1.52083C6.33331 1.14114 6.64112 0.833328 7.02081 0.833328C7.36887 0.833328 7.65651 1.09197 7.70203 1.42754L7.70831 1.52083V3.58241H9.31156L9.31248 1.52083C9.31248 1.17277 9.57116 0.885129 9.90666 0.839607L9.99998 0.833328C10.348 0.833328 10.6357 1.09197 10.6812 1.42754L10.6875 1.52083L10.6866 3.58241H12.2916V1.52083C12.2916 1.20441 12.5054 0.937929 12.7964 0.857886L12.8858 0.839607L12.9791 0.833328ZM12.9791 4.95833H7.02081C5.88173 4.95833 4.95831 5.88174 4.95831 7.02083V12.9792C4.95831 14.1182 5.88173 15.0417 7.02081 15.0417H12.9791C14.1182 15.0417 15.0416 14.1182 15.0416 12.9792V7.02083C15.0416 5.88174 14.1182 4.95833 12.9791 4.95833ZM10.0045 7.25451C11.5233 7.25451 12.7545 8.48575 12.7545 10.0045C12.7545 11.5233 11.5233 12.7545 10.0045 12.7545C8.48574 12.7545 7.2545 11.5233 7.2545 10.0045C7.2545 8.48575 8.48574 7.25451 10.0045 7.25451ZM10.0045 8.62949C9.2451 8.62949 8.62947 9.24512 8.62947 10.0045C8.62947 10.7639 9.2451 11.3795 10.0045 11.3795C10.7639 11.3795 11.3795 10.7639 11.3795 10.0045C11.3795 9.24512 10.7639 8.62949 10.0045 8.62949Z" fill="#B5BBC0"/>
</svg>
