<svg width="16" height="16" viewBox="0 0 16 16" fill="none" xmlns="http://www.w3.org/2000/svg">
<path d="M15.5 2.37571C15.5 3.41079 14.6609 4.24988 13.6257 4.24988H2.37423C1.33913 4.24988 0.5 3.41079 0.5 2.37571C0.5 1.34054 1.33913 0.501461 2.37423 0.501461H13.6257C14.6609 0.501461 15.5 1.34054 15.5 2.37571ZM12.1667 7.79238C12.1667 8.82746 11.3276 9.66659 10.2924 9.66659H2.37423C1.33913 9.66659 0.5 8.82746 0.5 7.79238C0.5 6.75721 1.33913 5.91813 2.37423 5.91813H10.2924C11.3276 5.91813 12.1667 6.75721 12.1667 7.79238ZM8.83333 13.209C8.83333 14.2441 7.99425 15.0833 6.95908 15.0833H2.37423C1.33913 15.0833 0.5 14.2441 0.5 13.209C0.5 12.1739 1.33913 11.3348 2.37423 11.3348H6.95908C7.99425 11.3348 8.83333 12.1739 8.83333 13.209ZM14.25 2.37571C14.25 2.03096 13.9705 1.75146 13.6257 1.75146H2.37423C2.02948 1.75146 1.75 2.03096 1.75 2.37571C1.75 2.72046 2.02948 2.99988 2.37423 2.99988H13.6257C13.9705 2.99988 14.25 2.72046 14.25 2.37571ZM10.9167 7.79238C10.9167 7.44763 10.6372 7.16813 10.2924 7.16813H2.37423C2.02948 7.16813 1.75 7.44763 1.75 7.79238C1.75 8.13713 2.02948 8.41654 2.37423 8.41654H10.2924C10.6372 8.41654 10.9167 8.13713 10.9167 7.79238ZM7.58333 13.209C7.58333 12.8643 7.30383 12.5848 6.95908 12.5848H2.37423C2.02948 12.5848 1.75 12.8643 1.75 13.209C1.75 13.5538 2.02948 13.8333 2.37423 13.8333H6.95908C7.30383 13.8333 7.58333 13.5538 7.58333 13.209Z" fill="#6E34FF"/>
</svg>
