<svg width="22" height="22" viewBox="0 0 22 22" fill="none" xmlns="http://www.w3.org/2000/svg">
<path d="M11.033 0.119213V0.13005C11.0438 0.184237 11.0438 0.249262 11.0438 0.314287V8.12808C11.033 8.17143 11.0005 8.18227 10.9679 8.20394C10.7404 8.31232 10.5236 8.40985 10.296 8.50739C9.98174 8.64828 9.65661 8.8 9.34233 8.94089L8.2044 9.46109C7.89011 9.60197 7.57582 9.74286 7.27238 9.88375C6.9039 10.0571 6.52459 10.2197 6.15612 10.3931C5.84183 10.534 5.52755 10.6857 5.20243 10.8266C4.94233 10.9458 4.68223 11.0542 4.43297 11.1734C4.41129 11.1842 4.38962 11.1951 4.36794 11.1951C4.35711 11.1951 4.35711 11.1951 4.34627 11.1842L4.63888 10.6966C5.20243 9.76453 5.75513 8.84335 6.31868 7.91133C6.91474 6.91429 7.52164 5.91724 8.1177 4.9202C8.67041 3.99902 9.23395 3.07783 9.78666 2.15665C10.1876 1.48473 10.5995 0.812809 11.0005 0.140888C11.0113 0.119213 11.0221 0.108375 11.0221 0.0867004H11.033C11.0221 0.0975379 11.033 0.108375 11.033 0.119213Z" fill="#8A92B2"/>
<path d="M17.6867 11.1842L17.6975 11.1951L16.1044 12.1379L11.0975 15.0966C11.0759 15.1074 11.0542 15.1182 11.0433 15.1291C11.0108 15.1291 11.0108 15.0966 11.0108 15.0857V14.9882V8.29065C11.0108 8.25814 11.0108 8.21479 11.0217 8.18228C11.0325 8.13893 11.065 8.14977 11.0975 8.1606C11.2384 8.22563 11.3901 8.29065 11.531 8.35568C11.9537 8.55075 12.3764 8.74582 12.799 8.93006C13.1675 9.09262 13.5251 9.26602 13.8936 9.42858C14.2621 9.59114 14.6305 9.76454 14.999 9.92711C15.3133 10.068 15.6384 10.2197 15.9527 10.3606C16.267 10.5015 16.5921 10.6532 16.9064 10.7941C17.1557 10.9025 17.4049 11.0217 17.6542 11.1301C17.6542 11.1626 17.665 11.1734 17.6867 11.1842Z" fill="#454A75"/>
<path d="M11.0325 21.8591C11.0325 21.8699 11.0217 21.8808 11.0217 21.8916H11.0108C11.0108 21.8699 10.9892 21.8591 10.9783 21.8374C10.3064 20.8946 9.63448 19.9409 8.96256 18.998C8.2798 18.0335 7.5862 17.0581 6.90345 16.0936C6.24236 15.1616 5.57044 14.2187 4.90936 13.2867C4.73596 13.0374 4.56256 12.799 4.38916 12.5498C4.37832 12.5281 4.36748 12.5172 4.34581 12.4847C4.37832 12.4847 4.4 12.5064 4.41083 12.5172C5.35369 13.0699 6.28571 13.6227 7.22857 14.1754C8.31231 14.8148 9.38522 15.4542 10.469 16.0936L11.0217 16.4187C11.0433 16.4404 11.0433 16.4621 11.0433 16.4837V21.7074C11.0433 21.7616 11.0433 21.8158 11.0325 21.8591Z" fill="#8A92B2"/>
<path d="M4.33498 11.2059V11.1951C4.68177 11.0433 5.01773 10.8808 5.36453 10.7291C5.80887 10.5231 6.2532 10.3281 6.69754 10.1222C7.0335 9.97044 7.3803 9.80788 7.71626 9.65615C8.21478 9.42857 8.70246 9.21182 9.20099 8.98423C9.53695 8.83251 9.87291 8.68078 10.2197 8.51822C10.4581 8.40985 10.7074 8.30147 10.9458 8.1931C10.9675 8.18226 11 8.17142 11.0108 8.14975C11.0217 8.14975 11.0217 8.16059 11.0108 8.17142V15.0532C11.0108 15.0857 11 15.1182 11.0217 15.1399C11 15.1724 10.9783 15.1399 10.9675 15.1291C10.87 15.0749 10.7724 15.0207 10.6749 14.9557C8.58325 13.7202 6.48079 12.4739 4.38916 11.2384C4.37833 11.2276 4.35665 11.2167 4.33498 11.2059Z" fill="#62688F"/>
<path d="M17.665 12.4847H17.6759C17.6759 12.5064 17.6542 12.5281 17.6434 12.5498C15.6493 15.3566 13.6552 18.1744 11.6611 20.9813C11.4552 21.2739 11.2384 21.5665 11.0325 21.8591C11.0217 21.8483 11.0217 21.8374 11.0217 21.8266V21.7616V16.5054V16.4079C11.4769 16.1369 11.9212 15.8768 12.3764 15.6059C14.132 14.5655 15.8877 13.536 17.6325 12.4956C17.6434 12.5064 17.6542 12.4956 17.665 12.4847Z" fill="#62688F"/>
<path d="M11.0217 8.17143V8.14975V8.08473V0.21675C11.0217 0.184238 11.0108 0.162563 11.0325 0.130051C13.2325 3.78227 15.4325 7.42365 17.6217 11.0759C17.6434 11.1084 17.6759 11.1517 17.6867 11.1951C17.535 11.1409 17.3941 11.065 17.2532 11C17.0798 10.9241 16.8956 10.8374 16.7222 10.7616C16.6138 10.7074 16.4946 10.664 16.3862 10.6099C16.202 10.5232 16.0177 10.4473 15.8335 10.3606C15.7251 10.3172 15.6167 10.2631 15.5084 10.2089L14.7931 9.88375C14.6739 9.82956 14.5547 9.77537 14.4246 9.72118L13.9044 9.4936C13.7961 9.45025 13.6877 9.39606 13.5793 9.34187L12.864 9.01675C12.7448 8.96256 12.6256 8.90838 12.4956 8.85419L11.9754 8.6266C11.8562 8.57242 11.7478 8.51823 11.6286 8.46404C11.4227 8.3665 11.2167 8.26897 11 8.18227C11.0325 8.17143 11.0217 8.17143 11.0217 8.17143Z" fill="#62688F"/>
</svg>
