<svg width="7" height="12" viewBox="0 0 7 12" fill="none" xmlns="http://www.w3.org/2000/svg">
<path d="M3.43273 0.670582L3.5006 0.666016C3.75373 0.666016 3.96293 0.854116 3.996 1.09817L4.0006 1.16602L4 9.63001L6.14627 7.48255C6.32373 7.30502 6.60153 7.28875 6.79733 7.43388L6.8534 7.48228C7.031 7.65968 7.04727 7.93748 6.90206 8.13328L6.85373 8.18941L3.8562 11.1894C3.6788 11.3669 3.401 11.3832 3.2052 11.2381L3.14913 11.1897L0.146592 8.18968C-0.0487482 7.99448 -0.0488817 7.67795 0.146298 7.48255C0.323732 7.30502 0.601505 7.28875 0.797305 7.43388L0.853405 7.48228L3 9.62735L3.0006 1.16602C3.0006 0.912882 3.18867 0.703689 3.43273 0.670582L3.5006 0.666016L3.43273 0.670582Z" fill="#FF2534"/>
</svg>
