<svg width="20" height="20" viewBox="0 0 20 20" fill="none" xmlns="http://www.w3.org/2000/svg">
<path fill-rule="evenodd" clip-rule="evenodd" d="M20 10C20 15.5225 15.5225 20 10 20C4.47746 20 0 15.5225 0 10C0 4.47746 4.47746 0 10 0C15.5237 0 20 4.47746 20 10ZM4.93323 10.3358L4.97637 10.268L7.57777 6.19842C7.61579 6.13884 7.70517 6.145 7.73393 6.20972C8.16853 7.1837 8.54353 8.39502 8.36785 9.14914C8.29285 9.45942 8.08737 9.87962 7.85619 10.268C7.82641 10.3245 7.79353 10.38 7.75859 10.4334C7.74215 10.4581 7.71441 10.4724 7.68461 10.4724H5.00925C4.93733 10.4724 4.89521 10.3944 4.93323 10.3358ZM16.5291 11.7364V11.0922C16.5291 11.0326 16.4716 10.9895 16.415 11.0059L13.3729 11.8854C13.3565 11.8895 13.3421 11.8987 13.3308 11.911C13.0049 12.2709 12.728 12.5125 12.6547 12.5765L12.6496 12.5809C12.4606 12.7412 12.2263 12.8285 11.9797 12.8285H10.8783V11.7056H11.7537C11.7763 11.7056 11.7979 11.6973 11.8143 11.683L11.9273 11.5792C11.9756 11.535 12.0332 11.4816 12.102 11.4127C12.1078 11.4069 12.1138 11.401 12.1198 11.395C12.1559 11.3589 12.1946 11.3204 12.2325 11.2782C12.2777 11.234 12.3219 11.1847 12.3629 11.1364C12.4318 11.0624 12.4975 10.9853 12.5664 10.9042C12.6157 10.8508 12.6609 10.7901 12.7051 10.7295C12.7544 10.672 12.8027 10.6073 12.8479 10.5456C12.8647 10.5209 12.8826 10.4959 12.9009 10.4704C12.9184 10.446 12.9361 10.4212 12.9537 10.3956C12.9866 10.3463 13.0195 10.2939 13.0472 10.2446C13.1335 10.111 13.2065 9.9682 13.2681 9.8254C13.2964 9.76423 13.319 9.69983 13.341 9.63723C13.3438 9.62938 13.3465 9.62155 13.3493 9.61376C13.3739 9.5408 13.3945 9.47198 13.4099 9.39902C13.4469 9.22744 13.4551 9.0569 13.4386 8.88634C13.4345 8.83292 13.4304 8.78052 13.4181 8.73122V8.723C13.414 8.68806 13.4058 8.64902 13.3945 8.61306C13.3575 8.44662 13.2999 8.28018 13.227 8.11682C13.2023 8.0562 13.1736 7.99456 13.1458 7.93806C13.0801 7.8158 13.0112 7.69352 12.9332 7.57538C12.9175 7.55043 12.9002 7.52515 12.8829 7.49991C12.8696 7.48046 12.8563 7.46105 12.8438 7.44182C12.7943 7.36555 12.7387 7.29202 12.6848 7.22067C12.6726 7.20455 12.6605 7.18854 12.6486 7.17264C12.6167 7.13082 12.5819 7.08901 12.5468 7.04693C12.5275 7.02386 12.5082 7.0007 12.4893 6.97742C12.4359 6.9127 12.3835 6.85106 12.3301 6.79044C12.139 6.57468 11.9386 6.37948 11.7599 6.21304C11.727 6.18016 11.691 6.14728 11.654 6.11544C11.5153 5.98906 11.389 5.87912 11.2831 5.79386C11.2513 5.7694 11.2228 5.7453 11.1963 5.72287C11.1782 5.70761 11.1611 5.69312 11.1444 5.67982C11.1124 5.65591 11.0845 5.63471 11.0612 5.61691C11.0464 5.60563 11.0333 5.59571 11.0222 5.58734C11.014 5.58118 11.0047 5.57708 10.9955 5.57398L10.8783 5.54112V4.57124C10.8783 4.41302 10.8146 4.27124 10.7129 4.16746C10.6112 4.0637 10.4694 4 10.3133 4C10.0009 4 9.7482 4.25582 9.7482 4.57124V5.22466L9.68964 5.20824L9.53038 5.16302L9.38552 5.12296C9.3845 5.12296 9.38346 5.12192 9.38142 5.12192H9.37834L8.279 4.82398C8.23072 4.81062 8.18962 4.86302 8.21428 4.9072L8.38996 5.23186C8.39994 5.25681 8.41257 5.28176 8.42555 5.30741C8.43396 5.324 8.44251 5.34088 8.45058 5.35824C8.47936 5.41576 8.50812 5.47638 8.53586 5.537C8.56052 5.59042 8.58518 5.64282 8.61394 5.70036C8.62602 5.7274 8.63835 5.75477 8.65085 5.78253C8.69677 5.8845 8.74506 5.99173 8.7927 6.10722C8.8338 6.20482 8.8749 6.30242 8.91086 6.40414C9.0095 6.65996 9.10298 6.93324 9.18416 7.21374C9.20436 7.27652 9.2205 7.33726 9.23687 7.39883C9.2438 7.42493 9.25078 7.45117 9.25812 7.47778L9.26942 7.52708C9.3023 7.65758 9.33108 7.78702 9.35162 7.9175C9.36806 8.00688 9.38346 8.09216 9.39168 8.17846C9.40402 8.27606 9.41634 8.37368 9.42046 8.47128C9.42868 8.56066 9.43278 8.65416 9.43278 8.74354C9.43278 8.97162 9.41224 9.19148 9.36394 9.39902C9.36091 9.41018 9.35788 9.42148 9.35483 9.43287C9.34131 9.48336 9.32729 9.53571 9.31052 9.58602C9.29535 9.6399 9.27568 9.69377 9.25525 9.74972C9.24803 9.76952 9.24071 9.78957 9.23346 9.80998C9.23211 9.81361 9.23075 9.81725 9.2294 9.82089C9.21429 9.86158 9.19891 9.90301 9.18004 9.94356C9.07832 10.1881 8.95196 10.4316 8.82148 10.6597C8.63038 10.9977 8.43826 11.2946 8.30366 11.4857C8.29543 11.498 8.2874 11.5098 8.27967 11.5211C8.27003 11.5352 8.26084 11.5486 8.2523 11.5617C8.21018 11.6213 8.25331 11.7056 8.32626 11.7056H9.7482V12.8285H8.30982C7.92352 12.8285 7.56598 12.6097 7.39338 12.2593C7.304 12.0836 7.26906 11.8905 7.28962 11.7014C7.29474 11.6449 7.25262 11.5915 7.1951 11.5915H4.28958C4.24026 11.5915 4.2002 11.6316 4.2002 11.6809V11.7405C4.2002 13.5939 5.69714 15.096 7.5444 15.096H12.7564C13.7334 15.096 14.2882 14.2057 14.8335 13.3306C14.9855 13.0867 15.1367 12.844 15.2962 12.622C15.5828 12.2234 16.2722 11.9069 16.4736 11.8206C16.5065 11.8062 16.5291 11.7734 16.5291 11.7364Z" fill="#62688F"/>
</svg>
