<svg width="7" height="12" viewBox="0 0 7 12" fill="none" xmlns="http://www.w3.org/2000/svg">
<path d="M3.56727 11.3314L3.4994 11.3359C3.24627 11.3359 3.03707 11.1478 3.004 10.9038L2.9994 10.8359L3 2.37194L0.853735 4.5194C0.676268 4.69694 0.398469 4.7132 0.202669 4.56807L0.146602 4.51967C-0.0309982 4.34227 -0.0472651 4.06447 0.0979352 3.86867L0.146269 3.81254L3.1438 0.812537C3.3212 0.635004 3.599 0.618737 3.7948 0.763871L3.85087 0.812272L6.85341 3.81227C7.04875 4.00747 7.04888 4.324 6.8537 4.5194C6.67627 4.69694 6.39849 4.7132 6.20269 4.56807L6.1466 4.51967L4 2.37461L3.9994 10.8359C3.9994 11.0891 3.81133 11.2983 3.56727 11.3314L3.4994 11.3359L3.56727 11.3314Z" fill="#5AD8A9"/>
</svg>
