<svg width="20" height="16" viewBox="0 0 20 16" fill="none" xmlns="http://www.w3.org/2000/svg">
<path d="M4.16893 9.5481C4.16895 9.43613 4.19109 9.32525 4.23408 9.22186C4.27706 9.11846 4.34005 9.02457 4.41942 8.94558C4.49879 8.8666 4.59299 8.80407 4.69659 8.76158C4.80019 8.7191 4.91117 8.6975 5.02315 8.69802L6.43934 8.70264C6.66515 8.70264 6.88171 8.79235 7.04138 8.95202C7.20105 9.11169 7.29075 9.32824 7.29075 9.55405V14.9094C7.45025 14.8622 7.65438 14.8117 7.87901 14.7588C8.03464 14.7222 8.17333 14.6341 8.27261 14.5088C8.37188 14.3835 8.42592 14.2283 8.42596 14.0684V7.42595C8.42596 7.20013 8.51565 6.98355 8.67532 6.82386C8.83498 6.66416 9.05154 6.57443 9.27736 6.57438H10.6979C10.9237 6.57443 11.1402 6.66416 11.2999 6.82386C11.4596 6.98355 11.5493 7.20013 11.5493 7.42595V13.5912C11.5493 13.5912 11.9046 13.4474 12.2506 13.3013C12.3791 13.247 12.4888 13.1559 12.566 13.0396C12.6432 12.9233 12.6844 12.7869 12.6845 12.6473V5.29736C12.6845 5.07158 12.7741 4.85505 12.9338 4.69538C13.0934 4.53572 13.3099 4.446 13.5357 4.44595H14.9547C15.1804 4.44617 15.3967 4.53597 15.5562 4.69562C15.7157 4.85526 15.8053 5.07169 15.8053 5.29736V11.3498C17.0355 10.4582 18.2823 9.38578 19.2717 8.09636C19.4153 7.9092 19.5103 7.68941 19.5482 7.4566C19.5862 7.2238 19.5659 6.98522 19.4893 6.76215C19.0313 5.44448 18.3032 4.23694 17.3518 3.21679C16.4003 2.19663 15.2463 1.38634 13.9637 0.837752C12.6811 0.289167 11.2981 0.0143706 9.90323 0.0309509C8.50834 0.0475312 7.13227 0.355122 5.86307 0.934039C4.59387 1.51296 3.4595 2.35045 2.53255 3.39293C1.60559 4.43542 0.90647 5.65992 0.479916 6.9881C0.053362 8.31628 -0.0912294 9.71888 0.0553937 11.1062C0.202017 12.4934 0.636626 13.8348 1.33141 15.0445C1.45246 15.2531 1.63054 15.4229 1.84475 15.5339C2.05896 15.6449 2.30038 15.6924 2.54066 15.6709C2.80909 15.6473 3.14331 15.6139 3.54067 15.5673C3.7136 15.5476 3.87326 15.465 3.98924 15.3352C4.10522 15.2054 4.16941 15.0375 4.16959 14.8635V9.5481" fill="#62688F"/>
</svg>
