<svg width="22" height="22" viewBox="0 0 22 22" fill="none" xmlns="http://www.w3.org/2000/svg">
<path d="M9.03237 0.617715C9.97362 0.236152 11.0263 0.236152 11.9676 0.617715L19.7786 3.78435C20.4665 4.06324 20.9166 4.73141 20.9166 5.47371V11.3443C20.4538 10.9002 19.9281 10.5212 19.3541 10.2221V6.09704L11.2815 9.21395V11.6078C10.5605 12.3793 10.0178 13.3195 9.71904 14.3628V9.2126L1.64581 6.07294V15.5286C1.64581 15.6347 1.71012 15.7301 1.80839 15.77L9.61946 18.9366C9.65238 18.95 9.68571 18.9626 9.71904 18.9744V18.9731L9.9156 19.053C9.97665 19.0779 10.039 19.0987 10.1021 19.1155C10.3607 19.6639 10.6908 20.1718 11.0804 20.6275C10.3937 20.7306 9.68612 20.6497 9.03237 20.3846L1.22135 17.218C0.533428 16.9391 0.083313 16.2709 0.083313 15.5286V5.47371C0.083313 4.73141 0.533428 4.06324 1.22135 3.78435L9.03237 0.617715ZM11.3805 2.06575C10.8158 1.83681 10.1841 1.83681 9.61946 2.06575L7.6263 2.87377L15.4671 5.92295L18.2472 4.84952L11.3805 2.06575ZM2.78121 4.838L10.5013 7.84028L13.3038 6.75819L5.51564 3.72944L2.78121 4.838ZM21.9583 16.2302C21.9583 13.066 19.3933 10.501 16.2291 10.501C13.065 10.501 10.5 13.066 10.5 16.2302C10.5 19.3943 13.065 21.9594 16.2291 21.9594C19.3933 21.9594 21.9583 19.3943 21.9583 16.2302ZM16.2733 12.5862L16.3626 12.6017L16.4281 12.6237L16.4984 12.6593L16.5479 12.6927L19.2016 15.341L19.2619 15.4132C19.4025 15.6161 19.3824 15.8969 19.2016 16.0776C19.0208 16.2584 18.7402 16.2785 18.5372 16.1379L18.465 16.0776L16.7489 14.3615L16.75 19.876L16.7415 19.9697C16.703 20.1822 16.5354 20.3499 16.3228 20.3884L16.2291 20.3969L16.1355 20.3884C15.9229 20.3499 15.7553 20.1822 15.7168 19.9697L15.7083 19.876L15.7073 14.3635L13.9933 16.0776L13.9211 16.1379C13.7435 16.2609 13.5064 16.2609 13.3288 16.1379L13.2566 16.0776L13.1964 16.0055C13.0734 15.8279 13.0734 15.5908 13.1964 15.4132L13.2566 15.341L15.8738 12.7244L15.9326 12.6769L16.0089 12.633L16.0957 12.6017L16.1583 12.5896L16.2166 12.5844L16.2733 12.5862Z" fill="#6E34FF"/>
</svg>
