<svg width="19" height="19" viewBox="0 0 19 19" fill="none" xmlns="http://www.w3.org/2000/svg">
<path d="M16.0104 0.120941C17.5925 0.120941 18.875 1.40346 18.875 2.98552V16.0064C18.875 17.5885 17.5925 18.871 16.0104 18.871H2.98958C1.40752 18.871 0.125 17.5885 0.125 16.0064V2.98552C0.125 1.40346 1.40752 0.120941 2.98958 0.120941H16.0104ZM16.0104 1.68344H2.98958C2.27046 1.68344 1.6875 2.26641 1.6875 2.98552V16.0064C1.6875 16.7254 2.27046 17.3085 2.98958 17.3085H16.0104C16.7296 17.3085 17.3125 16.7254 17.3125 16.0064V2.98552C17.3125 2.26641 16.7296 1.68344 16.0104 1.68344ZM5.07292 6.37439C5.46844 6.37439 5.7953 6.66704 5.84703 7.04673L5.85417 7.15229V13.9298C5.85417 14.3595 5.50438 14.7077 5.07292 14.7077C4.6774 14.7077 4.35053 14.4151 4.2988 14.0354L4.29167 13.9298V7.15229C4.29167 6.72266 4.64145 6.37439 5.07292 6.37439ZM13.9271 4.29106C14.3226 4.29106 14.6495 4.5769 14.7013 4.94775L14.7083 5.05086V13.9479C14.7083 14.3675 14.3585 14.7077 13.9271 14.7077C13.5316 14.7077 13.2047 14.4219 13.1529 14.0511L13.1458 13.9479V5.05086C13.1458 4.63123 13.4956 4.29106 13.9271 4.29106ZM9.47406 9.49595C9.86021 9.4922 10.1822 9.77377 10.2365 10.1425L10.2444 10.2451L10.2812 13.9402C10.2854 14.358 9.94719 14.7001 9.52594 14.7044C9.13979 14.708 8.81781 14.4266 8.76354 14.0578L8.75562 13.9552L8.71875 10.26C8.71458 9.8422 9.05281 9.50012 9.47406 9.49595Z" fill="#6E34FF"/>
</svg>
