<svg width="21" height="21" viewBox="0 0 21 21" fill="none" xmlns="http://www.w3.org/2000/svg">
<path d="M5.81204 7.10863C6.17404 6.71023 6.76587 6.33328 7.63537 6.33328C8.83572 6.33328 9.60854 7.15834 9.87968 8.06374C10.1439 8.94564 9.98364 10.0379 9.23437 10.7906C8.97687 11.0494 8.67375 11.2834 8.40845 11.4882L8.36604 11.5211C8.07521 11.7458 7.81547 11.9496 7.58633 12.178C7.31967 12.4441 7.10233 12.7348 6.97558 13.1041H9.19791C9.62937 13.1041 9.97916 13.4539 9.97916 13.8853C9.97916 14.3169 9.62937 14.6666 9.19791 14.6666H6.07287C5.86566 14.6666 5.66694 14.5843 5.52043 14.4378C5.37392 14.2913 5.29161 14.0925 5.29162 13.8853C5.29164 12.5865 5.83746 11.7155 6.48294 11.0718C6.79169 10.7639 7.12687 10.504 7.41054 10.2848L7.41365 10.2823C7.71158 10.0521 7.94274 9.87345 8.12692 9.68834C8.41059 9.40345 8.50906 8.93314 8.38288 8.51199C8.26379 8.11434 7.99749 7.89578 7.63537 7.89578C7.26788 7.89578 7.07847 8.0383 6.96846 8.15939C6.90663 8.22743 6.86433 8.29663 6.83853 8.34705C6.82595 8.37161 6.81835 8.38967 6.81505 8.39796L6.81394 8.40078C6.67959 8.80387 6.24642 9.02657 5.83929 8.89897C5.42755 8.77001 5.19835 8.33162 5.32735 7.91989L5.36348 7.81971C5.38282 7.77118 5.41031 7.70806 5.44759 7.63523C5.52147 7.49084 5.63787 7.30031 5.81204 7.10863ZM11.8021 6.33337C12.2335 6.33337 12.5833 6.68316 12.5833 7.11462V9.97845H14.1458V7.11462C14.1458 6.68316 14.4956 6.33337 14.9271 6.33337C15.3585 6.33337 15.7083 6.68316 15.7083 7.11462V13.8546C15.7083 14.2861 15.3585 14.6358 14.9271 14.6358C14.4956 14.6358 14.1458 14.2861 14.1458 13.8546V11.5409H11.8021C11.3706 11.5409 11.0208 11.1912 11.0208 10.7597V7.11462C11.0208 6.68316 11.3706 6.33337 11.8021 6.33337ZM20.9167 10.5C20.9167 4.74704 16.2529 0.0833435 10.5 0.0833435C4.74703 0.0833435 0.0833282 4.74704 0.0833282 10.5C0.0833282 16.2529 4.74703 20.9167 10.5 20.9167C16.2529 20.9167 20.9167 16.2529 20.9167 10.5ZM1.64583 10.5C1.64583 5.60999 5.60997 1.64584 10.5 1.64584C15.39 1.64584 19.3542 5.60999 19.3542 10.5C19.3542 15.39 15.39 19.3542 10.5 19.3542C5.60997 19.3542 1.64583 15.39 1.64583 10.5Z" fill="#5AD8A9"/>
</svg>
