<svg width="21" height="22" viewBox="0 0 21 22" fill="none" xmlns="http://www.w3.org/2000/svg">
<path d="M9.49998 3.20832C13.8735 3.20832 17.5064 6.37935 18.2251 10.5477C18.0123 10.5162 17.7945 10.5 17.5729 10.5C17.2545 10.5 16.9438 10.5336 16.6445 10.5975C15.9662 7.27255 13.0253 4.77082 9.49998 4.77082C5.47291 4.77082 2.20831 8.03542 2.20831 12.0625C2.20831 16.0896 5.47291 19.3542 9.49998 19.3542C9.67508 19.3542 9.84873 19.348 10.0208 19.3358V20.9016C9.84852 20.9116 9.67477 20.9167 9.49998 20.9167C4.60996 20.9167 0.645813 16.9525 0.645813 12.0625C0.645813 7.17247 4.60996 3.20832 9.49998 3.20832ZM10.2812 10.9222V7.11457L10.2741 7.00856C10.2224 6.62723 9.8955 6.33332 9.49998 6.33332C9.06852 6.33332 8.71873 6.6831 8.71873 7.11457V11.8021L8.72498 11.8945C8.94123 11.5395 9.27946 11.2561 9.70477 11.1144L10.2812 10.9222ZM16.945 3.32677L17.031 3.3891L18.2377 4.39346C18.5694 4.66949 18.6144 5.16209 18.3384 5.49372C18.0853 5.79771 17.6503 5.86092 17.3241 5.65673L17.2381 5.5944L16.0314 4.59004C15.6998 4.31401 15.6548 3.82141 15.9307 3.48978C16.1838 3.18579 16.6188 3.12258 16.945 3.32677ZM11.8437 0.604156C12.2752 0.604156 12.625 0.953938 12.625 1.38541C12.625 1.78093 12.331 2.10779 11.9498 2.15952L11.8437 2.16666H7.15623C6.72476 2.16666 6.37498 1.81688 6.37498 1.38541C6.37498 0.989886 6.66889 0.663021 7.05022 0.611292L7.15623 0.604156H11.8437ZM12.3005 11.6892C12.5043 11.8359 12.625 12.0718 12.625 12.3229V21.1771C12.625 21.6085 12.2752 21.9583 11.8437 21.9583C11.4123 21.9583 11.0625 21.6085 11.0625 21.1771V13.4069L10.5283 13.5849C10.1189 13.7213 9.67654 13.5001 9.54008 13.0908C9.40362 12.6814 9.62488 12.2391 10.0341 12.1026L11.5966 11.5818C11.8349 11.5024 12.0969 11.5423 12.3005 11.6892ZM14.1875 14.9271C14.1875 13.0574 15.7032 11.5417 17.5729 11.5417C19.4426 11.5417 20.9583 13.0574 20.9583 14.9271V18.5729C20.9583 20.4426 19.4426 21.9583 17.5729 21.9583C15.7032 21.9583 14.1875 20.4426 14.1875 18.5729V14.9271ZM17.5729 13.1042C16.5661 13.1042 15.75 13.9203 15.75 14.9271V18.5729C15.75 19.5797 16.5661 20.3958 17.5729 20.3958C18.5797 20.3958 19.3958 19.5797 19.3958 18.5729V14.9271C19.3958 13.9203 18.5797 13.1042 17.5729 13.1042Z" fill="#28D6E2"/>
</svg>
