<svg width="19" height="19" viewBox="0 0 19 19" fill="none" xmlns="http://www.w3.org/2000/svg">
<path d="M16.0104 0.125C17.5925 0.125 18.875 1.40752 18.875 2.98958V16.0104C18.875 17.5925 17.5925 18.875 16.0104 18.875H2.98958C1.40752 18.875 0.125 17.5925 0.125 16.0104V2.98958C0.125 1.40752 1.40752 0.125 2.98958 0.125H16.0104ZM16.0104 1.6875H2.98958C2.27046 1.6875 1.6875 2.27046 1.6875 2.98958V16.0104C1.6875 16.7296 2.27046 17.3125 2.98958 17.3125H16.0104C16.7296 17.3125 17.3125 16.7296 17.3125 16.0104V2.98958C17.3125 2.27046 16.7296 1.6875 16.0104 1.6875ZM7.41667 12.0409L14.1559 5.30174C14.461 4.99665 14.9556 4.99665 15.2607 5.30174C15.5381 5.5791 15.5633 6.01312 15.3364 6.31897L15.2607 6.40659L7.96906 13.6982C7.69177 13.9756 7.25771 14.0008 6.95186 13.7739L6.86424 13.6982L3.73924 10.5732C3.43415 10.2681 3.43415 9.77354 3.73924 9.46844C4.0166 9.19104 4.45062 9.16583 4.75647 9.39281L4.84409 9.46844L7.41667 12.0409L14.1559 5.30174L7.41667 12.0409Z" fill="#28D6E2"/>
</svg>
