<svg width="19" height="21" viewBox="0 0 19 21" fill="none" xmlns="http://www.w3.org/2000/svg">
<path d="M9.50001 3.20832C14.39 3.20832 18.3542 7.17247 18.3542 12.0625C18.3542 16.9525 14.39 20.9167 9.50001 20.9167C4.60999 20.9167 0.645844 16.9525 0.645844 12.0625C0.645844 7.17247 4.60999 3.20832 9.50001 3.20832ZM9.50001 4.77082C5.47294 4.77082 2.20834 8.03542 2.20834 12.0625C2.20834 16.0896 5.47294 19.3542 9.50001 19.3542C13.5271 19.3542 16.7917 16.0896 16.7917 12.0625C16.7917 8.03542 13.5271 4.77082 9.50001 4.77082ZM9.50001 6.33332C9.89553 6.33332 10.2224 6.62723 10.2742 7.00856L10.2813 7.11457V11.8021C10.2813 12.2335 9.93147 12.5833 9.50001 12.5833C9.10449 12.5833 8.77761 12.2894 8.72584 11.9081L8.71876 11.8021V7.11457C8.71876 6.6831 9.06855 6.33332 9.50001 6.33332ZM16.945 3.32677L17.031 3.3891L18.2377 4.39346C18.5694 4.66949 18.6144 5.16209 18.3384 5.49372C18.0853 5.79771 17.6503 5.86092 17.3242 5.65673L17.2381 5.5944L16.0315 4.59004C15.6998 4.31401 15.6548 3.82141 15.9307 3.48978C16.1839 3.18579 16.6189 3.12258 16.945 3.32677ZM11.8438 0.604156C12.2752 0.604156 12.625 0.953938 12.625 1.38541C12.625 1.78093 12.3311 2.10779 11.9498 2.15952L11.8438 2.16666H7.15626C6.72479 2.16666 6.37501 1.81688 6.37501 1.38541C6.37501 0.989886 6.66892 0.663021 7.05025 0.611292L7.15626 0.604156H11.8438Z" fill="#E953C8"/>
</svg>
