<svg width="17" height="19" viewBox="0 0 17 19" fill="none" xmlns="http://www.w3.org/2000/svg">
<path d="M9.68717 14.9362C9.40977 15.2136 9.38456 15.6477 9.61154 15.9535L9.68717 16.0411L12.1532 18.51C12.2841 18.7271 12.5447 18.875 12.8447 18.875C13.1073 18.875 13.3396 18.7616 13.4812 18.5877L13.5362 18.5097L16.0021 16.0411L16.0777 15.9535C16.2794 15.6817 16.2819 15.3085 16.0852 15.0342L16.0021 14.9362L15.9145 14.8606C15.6426 14.659 15.2695 14.6565 14.9951 14.8532L14.8972 14.9362L13.625 16.2083V0.80851L13.6178 0.71575C13.566 0.382094 13.2391 0.125 12.8436 0.125C12.4481 0.125 12.1213 0.38224 12.0696 0.715917L12.0625 0.808677V16.2083L10.792 14.9362L10.7044 14.8606C10.3985 14.6337 9.96446 14.659 9.68717 14.9362ZM2.42706 17.8415C1.13265 17.8415 0.083313 16.7922 0.083313 15.4977V3.51855C0.083313 2.22414 1.13265 1.1748 2.42706 1.1748H8.67706C9.10852 1.1748 9.45831 1.52458 9.45831 1.95605C9.45831 2.38753 9.10852 2.7373 8.67706 2.7373H2.42706C1.99559 2.7373 1.64581 3.08708 1.64581 3.51855V15.4977C1.64581 15.9292 1.99559 16.279 2.42706 16.279H6.59373C7.02519 16.279 7.37498 16.6287 7.37498 17.0602C7.37498 17.4917 7.02519 17.8415 6.59373 17.8415H2.42706Z" fill="#6E34FF"/>
</svg>
