<svg width="22" height="21" viewBox="0 0 22 21" fill="none" xmlns="http://www.w3.org/2000/svg">
<path d="M1.64581 10.5417C1.64581 5.65165 5.60996 1.6875 10.5 1.6875C14.8731 1.6875 18.5058 4.85792 19.2249 9.02562C20.087 9.57406 20.7031 10.4745 20.8708 11.5247C20.9011 11.201 20.9166 10.8731 20.9166 10.5417C20.9166 4.7887 16.2529 0.125 10.5 0.125C4.74701 0.125 0.083313 4.7887 0.083313 10.5417C0.083313 13.4147 1.24743 16.0172 3.12783 17.9009C3.43267 18.2062 3.92732 18.2067 4.23269 17.9019C4.53805 17.5971 4.53848 17.1024 4.23365 16.797C2.63374 15.1943 1.64581 12.9841 1.64581 10.5417ZM16.9487 8.4724C16.0744 5.74503 13.5177 3.77083 10.5 3.77083C6.76055 3.77083 3.72915 6.80224 3.72915 10.5417C3.72915 12.4123 4.4888 14.1071 5.71457 15.3317C6.01982 15.6367 6.51448 15.6364 6.81943 15.3311C7.12439 15.0259 7.12415 14.5312 6.81891 14.2263C5.87448 13.2828 5.29165 11.981 5.29165 10.5417C5.29165 7.66521 7.6235 5.33333 10.5 5.33333C12.8178 5.33333 14.7821 6.84743 15.4576 8.94052C15.9038 8.68417 16.4095 8.51958 16.9487 8.4724ZM7.89581 10.5417C7.89581 9.10344 9.06175 7.9375 10.5 7.9375C11.9382 7.9375 13.1041 9.10344 13.1041 10.5417C13.1041 11.9799 11.9382 13.1458 10.5 13.1458C9.06175 13.1458 7.89581 11.9799 7.89581 10.5417ZM10.5 9.5C9.92467 9.5 9.45831 9.96635 9.45831 10.5417C9.45831 11.117 9.92467 11.5833 10.5 11.5833C11.0753 11.5833 11.5416 11.117 11.5416 10.5417C11.5416 9.96635 11.0753 9.5 10.5 9.5ZM19.875 12.1042C19.875 13.5424 18.709 14.7083 17.2708 14.7083C15.8326 14.7083 14.6666 13.5424 14.6666 12.1042C14.6666 10.6659 15.8326 9.5 17.2708 9.5C18.709 9.5 19.875 10.6659 19.875 12.1042ZM21.9583 17.7031C21.9583 19.3245 20.619 20.9583 17.2708 20.9583C13.9226 20.9583 12.5833 19.3306 12.5833 17.7031V17.5958C12.5833 16.5759 13.4101 15.75 14.4299 15.75H20.1117C21.1315 15.75 21.9583 16.576 21.9583 17.5958V17.7031Z" fill="#5AD8A9"/>
</svg>
