<svg width="21" height="21" viewBox="0 0 21 21" fill="none" xmlns="http://www.w3.org/2000/svg">
<path d="M18.5727 0.0833435C19.8672 0.0833435 20.9165 1.13268 20.9165 2.42709V8.11663C20.9165 9.01438 20.5599 9.87532 19.9252 10.5102L11.07 19.3676C9.7476 20.6873 7.60619 20.6882 6.28207 19.3691L1.63446 14.7283C0.311056 13.4076 0.309358 11.264 1.63052 9.94084L10.4844 1.07641C11.1194 0.440604 11.981 0.0833435 12.8797 0.0833435H18.5727ZM18.5727 1.64584H12.8797C12.3958 1.64584 11.9318 1.83821 11.5899 2.18056L2.72304 11.0581C2.02488 11.7716 2.03018 12.9157 2.73837 13.6226L7.38547 18.2627C8.09888 18.9734 9.25343 18.9729 9.96562 18.2623L18.8202 9.40543C19.162 9.06365 19.354 8.60001 19.354 8.11663V2.42709C19.354 1.99562 19.0042 1.64584 18.5727 1.64584ZM15.7081 3.73145C16.571 3.73145 17.2706 4.43099 17.2706 5.29393C17.2706 6.15685 16.571 6.85639 15.7081 6.85639C14.8452 6.85639 14.1456 6.15685 14.1456 5.29393C14.1456 4.43099 14.8452 3.73145 15.7081 3.73145Z" fill="#E953C8"/>
</svg>
