<svg width="22" height="22" viewBox="0 0 22 22" fill="none" xmlns="http://www.w3.org/2000/svg">
<path fill-rule="evenodd" clip-rule="evenodd" d="M22 11C22 17.0748 17.0748 22 11 22C4.92521 22 0 17.0748 0 11C0 4.92521 4.92521 0 11 0C17.0761 0 22 4.92521 22 11ZM5.42656 11.3694L5.47401 11.2948L8.33555 6.81826C8.37737 6.75272 8.47569 6.7595 8.50733 6.83069C8.98538 7.90207 9.39789 9.23452 9.20464 10.0641C9.12214 10.4054 8.89611 10.8676 8.64181 11.2948C8.60905 11.3569 8.57289 11.418 8.53445 11.4767C8.51637 11.5039 8.48585 11.5197 8.45307 11.5197H5.51018C5.43107 11.5197 5.38474 11.4338 5.42656 11.3694ZM18.182 12.91V12.2014C18.182 12.1359 18.1187 12.0884 18.0565 12.1065L14.7102 13.0739C14.6921 13.0784 14.6763 13.0886 14.6638 13.1021C14.3054 13.498 14.0008 13.7637 13.9202 13.8341L13.9146 13.839C13.7066 14.0153 13.4489 14.1114 13.1777 14.1114H11.9662V12.8761H12.9291C12.9539 12.8761 12.9777 12.8671 12.9957 12.8513L13.12 12.7371C13.1732 12.6885 13.2365 12.6297 13.3122 12.554C13.3186 12.5476 13.3251 12.5411 13.3317 12.5345C13.3715 12.4949 13.414 12.4525 13.4557 12.406C13.5054 12.3574 13.554 12.3031 13.5992 12.25C13.675 12.1686 13.7473 12.0839 13.823 11.9946C13.8773 11.9358 13.927 11.8692 13.9756 11.8025C14.0298 11.7392 14.0829 11.668 14.1327 11.6002C14.1512 11.573 14.1709 11.5455 14.191 11.5174C14.2102 11.4906 14.2298 11.4633 14.2491 11.4352C14.2852 11.3809 14.3214 11.3233 14.3519 11.269C14.4468 11.1221 14.5271 10.965 14.5949 10.8079C14.626 10.7407 14.6509 10.6698 14.6751 10.601C14.6781 10.5923 14.6812 10.5837 14.6842 10.5751C14.7113 10.4949 14.7339 10.4192 14.7509 10.3389C14.7915 10.1502 14.8006 9.96259 14.7825 9.77497C14.778 9.71621 14.7735 9.65857 14.7599 9.60434V9.5953C14.7554 9.55687 14.7463 9.51392 14.7339 9.47437C14.6932 9.29128 14.6299 9.1082 14.5497 8.9285C14.5226 8.86182 14.4909 8.79402 14.4604 8.73187C14.3881 8.59738 14.3124 8.46287 14.2265 8.33292C14.2092 8.30547 14.1902 8.27766 14.1712 8.2499C14.1565 8.22851 14.1419 8.20715 14.1282 8.186C14.0738 8.10211 14.0126 8.02122 13.9533 7.94274C13.9398 7.92501 13.9265 7.9074 13.9134 7.8899C13.8784 7.84391 13.84 7.79791 13.8014 7.75162C13.7803 7.72624 13.7591 7.70077 13.7382 7.67516C13.6795 7.60397 13.6218 7.53617 13.5631 7.46948C13.3529 7.23215 13.1325 7.01743 12.9358 6.83434C12.8997 6.79818 12.8601 6.76201 12.8194 6.72698C12.6669 6.58797 12.5279 6.46703 12.4115 6.37325C12.3765 6.34634 12.3451 6.31983 12.3159 6.29515C12.296 6.27837 12.2772 6.26244 12.2589 6.2478C12.2236 6.2215 12.193 6.19818 12.1673 6.1786C12.151 6.16619 12.1367 6.15528 12.1244 6.14607C12.1154 6.1393 12.1052 6.13479 12.095 6.13138L11.9662 6.09523V5.02836C11.9662 4.85432 11.8961 4.69836 11.7842 4.58421C11.6723 4.47007 11.5164 4.4 11.3446 4.4C11.001 4.4 10.723 4.6814 10.723 5.02836V5.74713L10.6586 5.72906L10.4834 5.67932L10.3241 5.63526C10.3236 5.63526 10.3231 5.63506 10.3226 5.63483C10.3218 5.6345 10.3209 5.63411 10.3196 5.63411H10.3162L9.1069 5.30638C9.05379 5.29168 9.00858 5.34932 9.0357 5.39792L9.22895 5.75505C9.23993 5.78249 9.25383 5.80994 9.26811 5.83815C9.27735 5.8564 9.28676 5.87497 9.29563 5.89406C9.32729 5.95734 9.35893 6.02402 9.38944 6.0907C9.41657 6.14946 9.44369 6.2071 9.47533 6.2704C9.48863 6.30016 9.5022 6.33028 9.51596 6.36083C9.56647 6.47299 9.61958 6.59093 9.67197 6.71794C9.71718 6.8253 9.76239 6.93266 9.80194 7.04455C9.91045 7.32596 10.0133 7.62656 10.1026 7.93511C10.1248 8.00416 10.1425 8.07098 10.1606 8.13871C10.1682 8.16741 10.1759 8.19628 10.1839 8.22556L10.1964 8.27979C10.2325 8.42334 10.2642 8.56572 10.2868 8.70925C10.3049 8.80757 10.3218 8.90138 10.3308 8.99631C10.3444 9.10367 10.358 9.21105 10.3625 9.31841C10.3715 9.41673 10.3761 9.51958 10.3761 9.61789C10.3761 9.86878 10.3535 10.1106 10.3003 10.3389C10.297 10.3512 10.2937 10.3636 10.2903 10.3762C10.2754 10.4317 10.26 10.4893 10.2416 10.5446C10.2249 10.6039 10.2032 10.6632 10.1808 10.7247C10.1728 10.7465 10.1648 10.7685 10.1568 10.791C10.1553 10.795 10.1538 10.799 10.1523 10.803C10.1357 10.8478 10.1188 10.8933 10.098 10.9379C9.98615 11.2069 9.84715 11.4747 9.70362 11.7256C9.49341 12.0974 9.28208 12.4241 9.13402 12.6343C9.12497 12.6479 9.11613 12.6608 9.10762 12.6732C9.09702 12.6887 9.08692 12.7035 9.07753 12.7179C9.03119 12.7834 9.07865 12.8761 9.15888 12.8761H10.723V14.1114H9.1408C8.71587 14.1114 8.32257 13.8706 8.13271 13.4853C8.0344 13.292 7.99596 13.0795 8.01858 12.8716C8.02421 12.8094 7.97788 12.7507 7.91461 12.7507H4.71853C4.66428 12.7507 4.62021 12.7947 4.62021 12.849V12.9145C4.62021 14.9533 6.26685 16.6056 8.29884 16.6056H14.0321C15.1068 16.6056 15.717 15.6263 16.3168 14.6637C16.484 14.3954 16.6504 14.1283 16.8258 13.8842C17.1411 13.4457 17.8995 13.0976 18.121 13.0027C18.1571 12.9869 18.182 12.9507 18.182 12.91Z" fill="#2081E2"/>
</svg>
