<svg width="22" height="22" viewBox="0 0 22 22" fill="none" xmlns="http://www.w3.org/2000/svg">
<path fill-rule="evenodd" clip-rule="evenodd" d="M22 11C22 17.0751 17.0751 22 11 22C4.92487 22 0 17.0751 0 11C0 4.92487 4.92487 0 11 0C17.0751 0 22 4.92487 22 11ZM12.5728 6.80501C13.346 6.93864 14.0987 7.17205 14.8119 7.49939C14.8179 7.50216 14.8226 7.50696 14.8254 7.51292C16.0676 9.33996 16.6812 11.4012 16.4518 13.7739C16.4513 13.7789 16.4498 13.7838 16.4473 13.7882C16.4449 13.7925 16.4415 13.7963 16.4374 13.7993C15.6064 14.4152 14.6764 14.8848 13.6874 15.1878C13.6804 15.19 13.6729 15.1899 13.6659 15.1875C13.659 15.1852 13.653 15.1807 13.6487 15.1747C13.4395 14.8843 13.2519 14.579 13.0873 14.2612C13.085 14.2568 13.0837 14.252 13.0834 14.247C13.0831 14.2421 13.0839 14.2371 13.0857 14.2325C13.0874 14.2279 13.0902 14.2237 13.0937 14.2202C13.0956 14.2182 13.0977 14.2166 13.1001 14.2151C13.1019 14.214 13.1039 14.213 13.106 14.2122C13.4035 14.1006 13.691 13.9641 13.9654 13.804C13.9704 13.801 13.9745 13.7969 13.9775 13.7919C13.9805 13.787 13.9822 13.7814 13.9825 13.7756C13.9828 13.7698 13.9817 13.7641 13.9792 13.7588C13.9767 13.7536 13.973 13.749 13.9684 13.7456C13.9093 13.7024 13.8515 13.6568 13.7965 13.6115C13.7915 13.6074 13.7855 13.6049 13.7791 13.6041C13.7727 13.6034 13.7662 13.6044 13.7604 13.6072C11.9815 14.4292 10.0325 14.4292 8.2323 13.6072C8.22653 13.6046 8.22016 13.6037 8.2139 13.6045C8.20764 13.6054 8.20173 13.6079 8.19685 13.6119C8.14185 13.6575 8.08406 13.7026 8.02648 13.7456C8.02187 13.7491 8.01819 13.7536 8.01577 13.7589C8.01335 13.7642 8.01227 13.7699 8.0126 13.7757C8.01294 13.7815 8.0147 13.7871 8.01772 13.792C8.02074 13.797 8.02493 13.8011 8.02992 13.804C8.30472 13.9625 8.59164 14.099 8.888 14.2122C8.89261 14.2139 8.89681 14.2165 8.90033 14.22C8.90384 14.2234 8.9066 14.2275 8.9084 14.2321C8.91021 14.2367 8.91103 14.2416 8.91081 14.2465C8.91059 14.2514 8.90933 14.2562 8.90712 14.2606C8.74528 14.5801 8.55737 14.8858 8.34531 15.1745C8.34092 15.1803 8.33487 15.1846 8.32796 15.1869C8.32104 15.1892 8.3136 15.1893 8.30663 15.1872C7.319 14.8833 6.39019 14.4137 5.55986 13.7986C5.55585 13.7955 5.55251 13.7916 5.55004 13.7872C5.54757 13.7828 5.54601 13.7779 5.54546 13.7729C5.35382 11.7209 5.74441 9.64268 7.17033 7.51206C7.17383 7.5064 7.17901 7.50197 7.18515 7.49939C7.89796 7.17185 8.65036 6.93843 9.42339 6.80501C9.43042 6.80386 9.43763 6.80487 9.44407 6.8079C9.45051 6.81093 9.45589 6.81584 9.45949 6.82198C9.56433 7.00756 9.65887 7.19877 9.74265 7.39476C10.5761 7.26818 11.4239 7.26818 12.2574 7.39476C12.3408 7.19926 12.434 7.00809 12.5367 6.82198C12.5401 6.81571 12.5455 6.81068 12.552 6.80764C12.5585 6.80459 12.5657 6.80367 12.5728 6.80501ZM8.1874 11.4149C8.1874 12.026 8.63363 12.5235 9.17568 12.5235C9.72632 12.5235 10.1644 12.026 10.164 11.4149C10.173 10.8082 9.73062 10.3063 9.17568 10.3063C8.62525 10.3063 8.1874 10.8039 8.1874 11.4149ZM11.8425 11.4149C11.8425 12.026 12.2888 12.5235 12.8308 12.5235C13.3858 12.5235 13.8193 12.026 13.8191 11.4149C13.8281 10.8082 13.3858 10.3063 12.8308 10.3063C12.2804 10.3063 11.8425 10.8039 11.8425 11.4149Z" fill="white"/>
</svg>
