<svg width="22" height="22" viewBox="0 0 22 22" fill="none" xmlns="http://www.w3.org/2000/svg">
<path fill-rule="evenodd" clip-rule="evenodd" d="M22 11C22 17.0751 17.0751 22 11 22C4.92487 22 0 17.0751 0 11C0 4.92487 4.92487 0 11 0C17.0751 0 22 4.92487 22 11ZM3.75586 10.1931L8.04854 5.90039H13.951L18.2437 10.1931L10.9998 17.437L3.75586 10.1931ZM15.5614 10.2284C15.5614 10.2284 13.6924 12.7712 10.9722 12.7712V12.7714C8.25201 12.7714 6.43945 10.335 6.43945 10.335C6.43945 10.335 8.21889 7.68555 10.9722 7.68555C13.7257 7.68555 15.5614 10.2284 15.5614 10.2284ZM12.7803 10.2283C12.7803 11.2114 11.9834 12.0083 11.0003 12.0083C10.0173 12.0083 9.22032 11.2114 9.22032 10.2283C9.22032 9.24518 10.0173 8.44829 11.0003 8.44829C11.9835 8.44829 12.7803 9.24519 12.7803 10.2283ZM11.7632 10.2283C11.7632 10.6497 11.4217 10.9912 11.0003 10.9912C10.5791 10.9912 10.2374 10.6497 10.2374 10.2283C10.2374 9.80697 10.5791 9.46543 11.0003 9.46543C11.4217 9.46543 11.7632 9.80697 11.7632 10.2283Z" fill="white"/>
</svg>
