<svg width="22" height="18" viewBox="0 0 22 18" fill="none" xmlns="http://www.w3.org/2000/svg">
<path d="M4.58581 10.5029C4.58583 10.3797 4.61018 10.2578 4.65747 10.144C4.70475 10.0303 4.77404 9.92703 4.86135 9.84014C4.94865 9.75325 5.05227 9.68447 5.16623 9.63774C5.2802 9.591 5.40227 9.56724 5.52544 9.56782L7.08326 9.57291C7.33165 9.57291 7.56986 9.67158 7.74549 9.84721C7.92113 10.0229 8.0198 10.2611 8.0198 10.5095V16.4004C8.19526 16.3484 8.4198 16.2929 8.66689 16.2347C8.83808 16.1944 8.99064 16.0975 9.09985 15.9597C9.20905 15.8218 9.2685 15.6511 9.26853 15.4753V8.16854C9.26853 7.92014 9.3672 7.68191 9.54283 7.50624C9.71846 7.33058 9.95667 7.23186 10.2051 7.23182H11.7676C12.016 7.23186 12.2542 7.33058 12.4299 7.50624C12.6055 7.68191 12.7042 7.92014 12.7042 8.16854V14.9504C12.7042 14.9504 13.0951 14.7922 13.4756 14.6315C13.617 14.5716 13.7377 14.4715 13.8226 14.3436C13.9075 14.2156 13.9528 14.0655 13.9529 13.912V5.82709C13.9529 5.57873 14.0515 5.34055 14.2271 5.16492C14.4027 4.98928 14.6409 4.89059 14.8893 4.89054H16.4502C16.6984 4.89078 16.9364 4.98956 17.1118 5.16517C17.2873 5.34078 17.3858 5.57886 17.3858 5.82709V12.4847C18.7391 11.504 20.1105 10.3244 21.1989 8.906C21.3568 8.70011 21.4613 8.45835 21.503 8.20226C21.5448 7.94618 21.5225 7.68374 21.4382 7.43836C20.9344 5.98893 20.1335 4.66063 19.0869 3.53846C18.0403 2.41629 16.7709 1.52497 15.3601 0.921525C13.9492 0.31808 12.4279 0.0158046 10.8935 0.034043C9.35915 0.0522813 7.84547 0.390631 6.44936 1.02744C5.05324 1.66425 3.80543 2.58549 2.78578 3.73222C1.76613 4.87895 0.997098 6.22591 0.527889 7.68691C0.0586798 9.14791 -0.100371 10.6908 0.0609147 12.2168C0.2222 13.7428 0.70027 15.2183 1.46453 16.5489C1.59768 16.7785 1.79358 16.9652 2.02921 17.0873C2.26483 17.2094 2.5304 17.2616 2.79471 17.238C3.08998 17.212 3.45762 17.1753 3.89471 17.124C4.08494 17.1024 4.26057 17.0115 4.38815 16.8687C4.51572 16.726 4.58633 16.5413 4.58653 16.3498V10.5029" fill="white"/>
</svg>
