<svg width="22" height="22" viewBox="0 0 22 22" fill="none" xmlns="http://www.w3.org/2000/svg">
<path d="M10.9858 0C4.92513 0 -3.05176e-05 4.92516 -3.05176e-05 10.9858C-3.05176e-05 17.0465 4.92513 21.9716 10.9858 21.9716C17.0464 21.9716 21.9716 17.0465 21.9716 10.9858C21.9858 4.93935 17.0464 0 10.9858 0ZM15.8967 8.47355C15.8967 8.5871 15.8967 8.68645 15.8967 8.8C15.8967 12.1355 13.3561 15.9961 8.70062 15.9961C7.26707 15.9961 5.94707 15.5845 4.82578 14.8606C5.02449 14.889 5.2232 14.9032 5.42191 14.9032C6.61416 14.9032 7.69287 14.5058 8.55868 13.8245C7.45158 13.7961 6.51481 13.0723 6.20255 12.0645C6.35868 12.0929 6.51481 12.1071 6.67094 12.1071C6.89804 12.1071 7.12513 12.0787 7.33803 12.0219C6.18836 11.7948 5.30836 10.7729 5.30836 9.53807C5.30836 9.52387 5.30836 9.50968 5.30836 9.50968C5.649 9.69419 6.03223 9.80774 6.45804 9.82194C5.77675 9.36774 5.33674 8.60129 5.33674 7.72129C5.33674 7.2529 5.46449 6.8271 5.67739 6.44387C6.92642 7.97677 8.78578 8.98452 10.8864 9.08387C10.8438 8.89935 10.8155 8.70064 10.8155 8.50194C10.8155 7.11097 11.9509 5.97548 13.3419 5.97548C14.0658 5.97548 14.7329 6.28774 15.1871 6.77032C15.769 6.65678 16.3084 6.44387 16.7909 6.16C16.6064 6.75613 16.1948 7.2529 15.6838 7.56516C16.1948 7.50839 16.6916 7.36645 17.1316 7.16774C16.8193 7.67871 16.3935 8.11871 15.8967 8.47355Z" fill="#00AEEF"/>
</svg>
