<svg width="14" height="14" viewBox="0 0 14 14" fill="none" xmlns="http://www.w3.org/2000/svg">
<path d="M11.9705 12.8109L11.9703 12.8111L11.9762 12.8155C12.2112 12.9899 12.5445 12.9707 12.7576 12.7576C12.9919 12.5232 12.9919 12.1434 12.7576 11.9091L9.55355 8.70499C10.2091 7.8675 10.6 6.81261 10.6 5.66665C10.6 2.94204 8.39127 0.733313 5.66665 0.733313C2.94204 0.733313 0.733313 2.94204 0.733313 5.66665C0.733313 8.39127 2.94204 10.6 5.66665 10.6C6.81261 10.6 7.8675 10.2091 8.70499 9.55355L11.9091 12.7576L11.9089 12.7577L11.9144 12.7625L11.9705 12.8109ZM1.93331 5.66665C1.93331 3.60478 3.60478 1.93331 5.66665 1.93331C7.72848 1.93331 9.39998 3.60478 9.39998 5.66665C9.39998 7.72848 7.72848 9.39998 5.66665 9.39998C3.60478 9.39998 1.93331 7.72848 1.93331 5.66665Z" fill="white" stroke="white" stroke-width="0.2"/>
</svg>
